<?xml version="1.0" encoding="UTF-8"?>
<svg id="Layer_2" data-name="Layer 2" xmlns="http://www.w3.org/2000/svg" viewBox="0 0 413.49 769.48">
  <g id="Layer_1-2" data-name="Layer 1">
    <path d="M300.5,328.67C246.83,312.74-2.9,225.42,98.77,4.1c1.64-3.56,5.87-5.1,9.41-3.42,30.14,14.32,159.03,75.88,207.52,104.45,136.16,80.21,118.17,122.67,19.32,343.09-2.28,5.08-7.34,8.35-12.91,8.34l-136.87-.39c31.29,0,26.08,42.13-.41,153.47-4.84,20.34-30.48,116.6-38.56,149.15-1.56,6.29-7.2,10.7-13.68,10.7H35.41c-8.85,0-15.51-8.05-13.85-16.74l56.31-294.71-64.03-1.15c-8.61-.16-15.07-7.92-13.65-16.41l16.21-97.26c1.13-6.8,7.01-11.78,13.9-11.78h269.78c1.63,0,1.97-2.29.41-2.76Z"/>
  </g>
</svg>