<?xml version="1.0" encoding="UTF-8"?>
<svg id="Layer_2" data-name="Layer 2" xmlns="http://www.w3.org/2000/svg" viewBox="0 0 902.46 264.89">
  <g id="Layer_1-2" data-name="Layer 1">
    <g>
      <path d="M103.45,113.14C84.97,107.66-1,77.6,34,1.41c.56-1.23,2.02-1.75,3.24-1.18,10.38,4.93,54.74,26.12,71.44,35.96,46.87,27.61,40.68,42.23,6.65,118.11-.78,1.75-2.53,2.88-4.44,2.87l-47.12-.13c10.77,0,8.98,14.5-.14,52.83-1.67,7-10.49,40.14-13.28,51.34-.54,2.16-2.48,3.68-4.71,3.68H12.19c-3.05,0-5.34-2.77-4.77-5.76l19.39-101.45-22.04-.4c-2.96-.05-5.19-2.73-4.7-5.65l5.58-33.48c.39-2.34,2.41-4.05,4.79-4.05h92.87c.56,0,.68-.79.14-.95Z" fill="#000"/>
      <g>
        <path d="M196.1,122.5v-56.75h36.8v4.8h-31.51v20.68h27.36v4.8h-27.36v26.46h-5.29Z" fill="#000"/>
        <path d="M239.85,74.54v-8.79h6.11v8.79h-6.11ZM240.34,122.5v-40.14h5.13v40.14h-5.13Z" fill="#000"/>
        <path d="M256.65,122.5v-40.14h5.21v9.36l-1.22.41c.71-2.23,1.71-4.1,3.01-5.62,1.3-1.52,2.86-2.69,4.68-3.5,1.82-.81,3.84-1.22,6.07-1.22,4.34,0,7.74,1.29,10.18,3.87,2.44,2.58,3.66,6.5,3.66,11.76v25.08h-5.13v-23.2c0-4.45-.83-7.73-2.48-9.85-1.66-2.12-4.14-3.18-7.45-3.18-2.28,0-4.27.56-5.98,1.67-1.71,1.11-3.03,2.88-3.95,5.29-.92,2.42-1.38,5.55-1.38,9.4v19.87h-5.21Z" fill="#000"/>
        <path d="M297.52,122.5v-40.14h5.21v9.36l-1.22.41c.71-2.23,1.71-4.1,3.01-5.62,1.3-1.52,2.86-2.69,4.68-3.5,1.82-.81,3.84-1.22,6.07-1.22,4.34,0,7.74,1.29,10.18,3.87,2.44,2.58,3.66,6.5,3.66,11.76v25.08h-5.13v-23.2c0-4.45-.83-7.73-2.48-9.85-1.66-2.12-4.14-3.18-7.45-3.18-2.28,0-4.27.56-5.98,1.67-1.71,1.11-3.03,2.88-3.95,5.29-.92,2.42-1.38,5.55-1.38,9.4v19.87h-5.21Z" fill="#000"/>
        <path d="M337.83,74.54v-8.79h6.11v8.79h-6.11ZM338.32,122.5v-40.14h5.13v40.14h-5.13Z" fill="#000"/>
        <path d="M365.92,123.07c-2.66,0-5.06-.41-7.21-1.22-2.15-.81-3.99-1.91-5.54-3.3-1.55-1.38-2.76-2.92-3.62-4.6l3.66-2.93c1.03,2.28,2.65,4.14,4.85,5.58,2.2,1.44,4.82,2.16,7.86,2.16,2.88,0,5.18-.64,6.92-1.91,1.74-1.27,2.61-3.02,2.61-5.25,0-1.84-.53-3.27-1.59-4.27-1.06-1-2.42-1.8-4.07-2.4-1.66-.6-3.46-1.11-5.41-1.55-1.52-.38-3.04-.83-4.56-1.34-1.52-.52-2.89-1.17-4.11-1.95-1.22-.79-2.19-1.8-2.89-3.05-.71-1.25-1.06-2.8-1.06-4.64,0-3.15,1.23-5.7,3.7-7.65s5.69-2.93,9.65-2.93c2.98,0,5.71.64,8.18,1.91,2.47,1.28,4.38,3.22,5.74,5.82l-3.34,2.44c-1.14-2.12-2.65-3.65-4.52-4.6-1.87-.95-3.95-1.42-6.23-1.42-2.44,0-4.47.54-6.07,1.63-1.6,1.09-2.4,2.55-2.4,4.4,0,1.36.38,2.46,1.14,3.3.76.84,1.84,1.53,3.26,2.08,1.41.54,3.07,1.03,4.97,1.47,1.74.38,3.46.84,5.17,1.38,1.71.54,3.28,1.23,4.72,2.08,1.44.84,2.58,1.97,3.42,3.38.84,1.41,1.26,3.2,1.26,5.37,0,2.44-.6,4.57-1.79,6.39-1.19,1.82-2.88,3.22-5.05,4.19-2.17.98-4.72,1.47-7.65,1.47Z" fill="#000"/>
        <path d="M387.82,122.5v-56.75h5.21v25.97l-1.3.41c.7-2.23,1.72-4.1,3.05-5.62,1.33-1.52,2.9-2.69,4.72-3.5,1.82-.81,3.84-1.22,6.07-1.22,4.4,0,7.8,1.32,10.22,3.95,2.41,2.63,3.62,6.53,3.62,11.68v25.08h-5.13v-23.2c0-4.45-.83-7.73-2.48-9.85-1.66-2.12-4.14-3.18-7.45-3.18-3.47,0-6.23,1.3-8.26,3.91-2.04,2.61-3.05,6.76-3.05,12.46v19.87h-5.21Z" fill="#000"/>
        <path d="M213.37,199.28c-6.02,0-10.98-1.57-14.86-4.72-3.88-3.15-6.23-7.33-7.04-12.54l10.26-2.52c.6,3.47,1.97,6.08,4.11,7.82,2.14,1.74,4.79,2.61,7.94,2.61,1.68,0,3.19-.29,4.52-.86,1.33-.57,2.39-1.41,3.18-2.52.79-1.11,1.18-2.43,1.18-3.95,0-1.41-.41-2.63-1.22-3.66-.81-1.03-2.05-1.98-3.7-2.85-1.66-.87-3.73-1.76-6.23-2.69-3.58-1.41-6.58-2.92-9-4.52-2.42-1.6-4.22-3.46-5.41-5.58-1.19-2.12-1.79-4.61-1.79-7.49,0-3.04.75-5.73,2.24-8.06,1.49-2.33,3.58-4.18,6.27-5.54,2.69-1.36,5.82-2.04,9.4-2.04,3.8,0,7.18.88,10.14,2.65,2.96,1.76,5.33,4.38,7.12,7.86l-8.39,5.13c-1.14-2.06-2.48-3.62-4.03-4.68-1.55-1.06-3.27-1.59-5.17-1.59-1.36,0-2.56.26-3.62.77-1.06.52-1.9,1.22-2.52,2.12-.62.9-.94,1.94-.94,3.13s.37,2.36,1.1,3.34c.73.98,1.93,1.91,3.58,2.81s3.81,1.83,6.47,2.81c3.53,1.3,6.47,2.74,8.83,4.32,2.36,1.57,4.17,3.41,5.41,5.5,1.25,2.09,1.87,4.63,1.87,7.61,0,3.37-.83,6.36-2.48,9-1.66,2.63-3.95,4.68-6.88,6.15-2.93,1.47-6.38,2.2-10.34,2.2Z" fill="#000"/>
        <path d="M235.6,165.98v-7.9h26.3v7.9h-26.3ZM255.05,199.03c-2.17,0-4.18-.41-6.03-1.22s-3.33-2.14-4.44-3.99c-1.11-1.84-1.67-4.32-1.67-7.41v-37.7l10.26-5.45v40.38c0,2.33.31,4.1.94,5.29.62,1.19,1.86,1.79,3.7,1.79.54,0,1.15-.05,1.83-.16.68-.11,1.42-.27,2.24-.49v7.73c-1.14.43-2.28.75-3.42.94-1.14.19-2.28.28-3.42.28Z" fill="#000"/>
        <path d="M283.22,199.03c-2.93,0-5.55-.54-7.86-1.63-2.31-1.09-4.13-2.63-5.45-4.64-1.33-2.01-2-4.32-2-6.92,0-2.33.47-4.33,1.42-5.98.95-1.65,2.21-2.92,3.79-3.79,1.36-.81,2.86-1.38,4.52-1.71s3.43-.49,5.33-.49h12.46v7.49h-10.99c-.87,0-1.72.07-2.56.2-.84.14-1.56.45-2.16.94-.54.38-.95.86-1.22,1.42-.27.57-.41,1.21-.41,1.91,0,1.52.6,2.74,1.79,3.66,1.19.92,2.8,1.38,4.8,1.38,1.79,0,3.43-.39,4.93-1.18,1.49-.79,2.69-1.87,3.58-3.26.89-1.38,1.34-2.97,1.34-4.76l2.69,5.37c-.71,2.82-1.78,5.12-3.22,6.88-1.44,1.76-3.08,3.05-4.93,3.87-1.85.81-3.8,1.22-5.86,1.22ZM295.36,198.22l-.81-6.02v-19.3c0-2.39-.75-4.17-2.24-5.33-1.49-1.17-3.51-1.75-6.07-1.75-2.12,0-4.27.42-6.47,1.26-2.2.84-4.14,2.02-5.82,3.54l-5.13-6.92c2.82-2.28,5.71-3.92,8.67-4.93,2.96-1,6.15-1.51,9.57-1.51,5.54,0,9.85,1.38,12.95,4.15,3.09,2.77,4.64,6.6,4.64,11.48v25.32h-9.28Z" fill="#000"/>
        <path d="M313.19,198.22v-40.14h10.18v10.91l-1.55.16c.16-2.33.87-4.4,2.12-6.19,1.25-1.79,2.78-3.19,4.6-4.19,1.82-1,3.68-1.51,5.58-1.51,1.36,0,2.65.18,3.87.53,1.22.35,2.48.94,3.79,1.75l-4.89,9.12c-.6-.33-1.36-.62-2.28-.9-.92-.27-1.85-.41-2.77-.41-1.09,0-2.13.19-3.14.57-1,.38-1.9.98-2.69,1.79-.79.81-1.42,1.9-1.91,3.26-.22.76-.39,1.72-.53,2.89-.14,1.17-.2,2.86-.2,5.09v17.26h-10.18Z" fill="#000"/>
        <path d="M346.24,165.98v-7.9h26.3v7.9h-26.3ZM365.7,199.03c-2.17,0-4.18-.41-6.03-1.22s-3.33-2.14-4.44-3.99c-1.11-1.84-1.67-4.32-1.67-7.41v-37.7l10.26-5.45v40.38c0,2.33.31,4.1.94,5.29.62,1.19,1.86,1.79,3.7,1.79.54,0,1.15-.05,1.83-.16.68-.11,1.42-.27,2.24-.49v7.73c-1.14.43-2.28.75-3.42.94-1.14.19-2.28.28-3.42.28Z" fill="#000"/>
        <path d="M394.2,199.03c-3.26,0-5.98-.65-8.18-1.95-2.2-1.3-3.83-3.15-4.89-5.54-1.06-2.39-1.59-5.18-1.59-8.39v-25.08h10.1v22.55c0,1.85.22,3.49.65,4.93.43,1.44,1.21,2.58,2.32,3.42,1.11.84,2.65,1.26,4.6,1.26,2.39,0,4.19-.68,5.41-2.04,1.22-1.36,2.06-3.24,2.52-5.66.46-2.41.69-5.25.69-8.51v-15.96h10.1v40.14h-10.1v-8.71l1.38.81c-1.19,3.09-2.96,5.32-5.29,6.68-2.33,1.36-4.91,2.04-7.73,2.04Z" fill="#000"/>
        <path d="M424.81,214.83v-56.75h10.1v10.75l-2.44.81c.7-3.2,1.78-5.7,3.22-7.49,1.44-1.79,3.08-3.05,4.93-3.79,1.84-.73,3.77-1.1,5.78-1.1,3.53,0,6.58.91,9.16,2.73,2.58,1.82,4.55,4.3,5.9,7.45,1.36,3.15,2.04,6.73,2.04,10.75,0,4.34-.76,8.07-2.28,11.19-1.52,3.12-3.58,5.51-6.19,7.16-2.61,1.66-5.48,2.48-8.63,2.48-2.12,0-4.13-.44-6.03-1.3-1.9-.87-3.51-2.18-4.84-3.95-1.33-1.76-2.24-4-2.73-6.72l2.12.33v27.44h-10.1ZM443.62,189.75c2.01,0,3.73-.47,5.17-1.42,1.44-.95,2.56-2.29,3.38-4.03.81-1.74,1.22-3.77,1.22-6.11s-.41-4.45-1.22-6.19c-.81-1.74-1.94-3.08-3.38-4.03-1.44-.95-3.16-1.42-5.17-1.42s-3.65.49-5.09,1.47c-1.44.98-2.55,2.32-3.34,4.03-.79,1.71-1.18,3.76-1.18,6.15s.39,4.37,1.18,6.11c.79,1.74,1.9,3.08,3.34,4.03,1.44.95,3.14,1.42,5.09,1.42Z" fill="#000"/>
        <path d="M511.6,199.52c-5.37,0-10.11-1.25-14.21-3.75-4.1-2.5-7.29-5.97-9.57-10.42-2.28-4.45-3.42-9.63-3.42-15.55s1.14-11.09,3.42-15.51c2.28-4.42,5.47-7.88,9.57-10.38,4.1-2.5,8.83-3.75,14.21-3.75,6.03,0,11.22,1.51,15.59,4.52,4.37,3.01,7.5,7.15,9.4,12.42l-9.93,3.66c-1.19-3.31-3.08-5.89-5.66-7.73-2.58-1.84-5.71-2.77-9.4-2.77-3.37,0-6.31.79-8.83,2.36-2.52,1.57-4.45,3.81-5.78,6.72-1.33,2.9-2,6.39-2,10.46s.66,7.57,2,10.5c1.33,2.93,3.26,5.18,5.78,6.76,2.52,1.57,5.47,2.36,8.83,2.36,3.69,0,6.83-.92,9.4-2.77,2.58-1.84,4.46-4.42,5.66-7.73l9.93,3.58c-1.9,5.27-5.04,9.42-9.4,12.46-4.37,3.04-9.57,4.56-15.59,4.56Z" fill="#000"/>
        <path d="M562.81,199.03c-3.91,0-7.38-.9-10.42-2.69-3.04-1.79-5.44-4.27-7.21-7.45-1.76-3.17-2.65-6.77-2.65-10.79s.87-7.67,2.61-10.79c1.74-3.12,4.14-5.58,7.21-7.37,3.07-1.79,6.55-2.69,10.46-2.69s7.3.9,10.34,2.69c3.04,1.79,5.43,4.25,7.16,7.37,1.74,3.12,2.61,6.72,2.61,10.79s-.87,7.6-2.61,10.75c-1.74,3.15-4.13,5.63-7.16,7.45-3.04,1.82-6.49,2.73-10.34,2.73ZM562.81,190.16c2.06,0,3.84-.49,5.33-1.47,1.49-.98,2.63-2.36,3.42-4.15.79-1.79,1.18-3.93,1.18-6.43s-.39-4.71-1.18-6.47c-.79-1.76-1.93-3.12-3.42-4.07-1.49-.95-3.27-1.42-5.33-1.42s-3.94.48-5.45,1.42c-1.52.95-2.69,2.31-3.5,4.07-.81,1.76-1.22,3.92-1.22,6.47s.41,4.64,1.22,6.43c.81,1.79,1.98,3.18,3.5,4.15s3.34,1.47,5.45,1.47Z" fill="#000"/>
        <path d="M589.6,198.22v-40.14h10.18v10.42l-2.2,1.71c.38-2.55,1.03-4.67,1.95-6.35.92-1.68,2.02-3,3.3-3.95,1.27-.95,2.61-1.63,3.99-2.04s2.75-.61,4.11-.61c2.12,0,4.12.39,6.02,1.18,1.9.79,3.55,2.13,4.97,4.03,1.41,1.9,2.39,4.51,2.93,7.82l-6.03,2.2c.81-3.8,2-6.81,3.54-9.04,1.55-2.23,3.34-3.81,5.37-4.76,2.04-.95,4.19-1.42,6.47-1.42,3.42,0,6.19.76,8.3,2.28,2.12,1.52,3.68,3.46,4.68,5.82,1,2.36,1.51,4.87,1.51,7.53v25.32h-10.1v-22.88c0-2.01-.26-3.7-.77-5.09-.52-1.38-1.26-2.43-2.24-3.13-.98-.71-2.25-1.06-3.83-1.06s-3.01.44-4.15,1.3c-1.14.87-1.99,2.17-2.56,3.91-.57,1.74-.85,3.96-.85,6.68v20.27h-10.1v-23.04c0-3.04-.56-5.32-1.67-6.84-1.11-1.52-2.73-2.28-4.84-2.28-1.68,0-3.11.44-4.27,1.3-1.17.87-2.05,2.17-2.65,3.91-.6,1.74-.89,3.96-.89,6.68v20.27h-10.18Z" fill="#000"/>
        <path d="M657.26,198.22v-40.14h10.18v10.42l-2.2,1.71c.38-2.55,1.03-4.67,1.95-6.35.92-1.68,2.02-3,3.3-3.95,1.27-.95,2.61-1.63,3.99-2.04s2.75-.61,4.11-.61c2.12,0,4.12.39,6.02,1.18,1.9.79,3.55,2.13,4.97,4.03,1.41,1.9,2.39,4.51,2.93,7.82l-6.03,2.2c.81-3.8,2-6.81,3.54-9.04,1.55-2.23,3.34-3.81,5.37-4.76,2.04-.95,4.19-1.42,6.47-1.42,3.42,0,6.19.76,8.3,2.28,2.12,1.52,3.68,3.46,4.68,5.82,1,2.36,1.51,4.87,1.51,7.53v25.32h-10.1v-22.88c0-2.01-.26-3.7-.77-5.09-.52-1.38-1.26-2.43-2.24-3.13-.98-.71-2.25-1.06-3.83-1.06s-3.01.44-4.15,1.3c-1.14.87-1.99,2.17-2.56,3.91-.57,1.74-.85,3.96-.85,6.68v20.27h-10.1v-23.04c0-3.04-.56-5.32-1.67-6.84-1.11-1.52-2.73-2.28-4.84-2.28-1.68,0-3.11.44-4.27,1.3-1.17.87-2.05,2.17-2.65,3.91-.6,1.74-.89,3.96-.89,6.68v20.27h-10.18Z" fill="#000"/>
        <path d="M737.98,199.03c-3.26,0-5.98-.65-8.18-1.95-2.2-1.3-3.83-3.15-4.89-5.54-1.06-2.39-1.59-5.18-1.59-8.39v-25.08h10.1v22.55c0,1.85.22,3.49.65,4.93.43,1.44,1.21,2.58,2.32,3.42,1.11.84,2.65,1.26,4.6,1.26,2.39,0,4.19-.68,5.41-2.04,1.22-1.36,2.06-3.24,2.52-5.66.46-2.41.69-5.25.69-8.51v-15.96h10.1v40.14h-10.1v-8.71l1.38.81c-1.19,3.09-2.96,5.32-5.29,6.68-2.33,1.36-4.91,2.04-7.73,2.04Z" fill="#000"/>
        <path d="M768.58,198.22v-40.14h10.18v9.12l-1.63.16c.7-2.44,1.74-4.4,3.09-5.86,1.36-1.47,2.93-2.54,4.72-3.22,1.79-.68,3.64-1.02,5.54-1.02,4.56,0,8.13,1.29,10.71,3.87,2.58,2.58,3.87,6.2,3.87,10.87v26.22h-10.18v-22.47c0-3.36-.6-5.82-1.79-7.37-1.19-1.55-3.07-2.32-5.62-2.32-1.95,0-3.57.45-4.84,1.34-1.28.9-2.24,2.29-2.89,4.19-.65,1.9-.98,4.37-.98,7.41v19.21h-10.18Z" fill="#000"/>
        <path d="M813.15,151.89v-10.42h10.83v10.42h-10.83ZM813.47,198.22v-40.14h10.1v40.14h-10.1Z" fill="#000"/>
        <path d="M829.75,165.98v-7.9h26.3v7.9h-26.3ZM849.21,199.03c-2.17,0-4.18-.41-6.03-1.22s-3.33-2.14-4.44-3.99c-1.11-1.84-1.67-4.32-1.67-7.41v-37.7l10.26-5.45v40.38c0,2.33.31,4.1.94,5.29.62,1.19,1.86,1.79,3.7,1.79.54,0,1.15-.05,1.83-.16.68-.11,1.42-.27,2.24-.49v7.73c-1.14.43-2.28.75-3.42.94-1.14.19-2.28.28-3.42.28Z" fill="#000"/>
        <path d="M868.43,214.83l8.14-19.7-15.14-37.05h11.07l9.44,26.95,9.61-26.95h10.91l-23.04,56.75h-10.99Z" fill="#000"/>
      </g>
    </g>
  </g>
</svg>
